<svg width="39" height="29" viewBox="0 0 39 29" fill="none" xmlns="http://www.w3.org/2000/svg">
<path d="M7.97515 24.2499C8.46314 24.2499 8.85874 23.8543 8.85874 23.3663C8.85874 22.8783 8.46314 22.4827 7.97515 22.4827C7.48715 22.4827 7.09155 22.8783 7.09155 23.3663C7.09155 23.8543 7.48715 24.2499 7.97515 24.2499Z" fill="#ED204C"/>
<path d="M30.1336 24.2499C30.6216 24.2499 31.0172 23.8543 31.0172 23.3663C31.0172 22.8783 30.6216 22.4827 30.1336 22.4827C29.6456 22.4827 29.25 22.8783 29.25 23.3663C29.25 23.8543 29.6456 24.2499 30.1336 24.2499Z" fill="#ED204C"/>
<path d="M13.068 22.5003L13.0892 22.6252H13.2159H22.1584C22.572 22.6252 22.8983 22.9549 22.8921 23.3564H22.892V23.3588C22.892 23.7634 22.5631 24.0924 22.1584 24.0924H13.2159H13.0892L13.068 24.2173C12.6534 26.6605 10.5284 28.5256 7.97524 28.5256C5.12547 28.5256 2.80845 26.2086 2.80845 23.3588C2.80845 20.509 5.12547 18.192 7.97524 18.192C10.5359 18.192 12.6534 20.057 13.068 22.5003ZM4.28325 23.3664C4.28325 25.399 5.93457 27.0584 7.97524 27.0584C10.0159 27.0584 11.6672 25.399 11.6672 23.3664C11.6672 21.3336 10.0081 19.6744 7.97524 19.6744C5.9424 19.6744 4.28325 21.3336 4.28325 23.3664Z" fill="black" stroke="white" stroke-width="0.3"/>
<mask id="path-4-inside-1" fill="white">
<path d="M37.9336 14.1496L35.3209 12.1844L32.7539 4.46819C32.632 4.10256 32.2969 3.85881 31.916 3.85881H25.708C25.3195 3.85881 24.9768 4.11018 24.8625 4.48342L20.8711 17.2651C20.6883 17.8364 20.0561 18.1715 19.4848 17.9887L3.86953 13.068C3.58008 12.9766 3.35156 12.7328 3.27539 12.4358L1.79004 6.49436C1.7748 6.44104 1.76719 6.3801 1.76719 6.32678C1.76719 5.94592 2.07949 5.63362 2.46035 5.63362H19.2791C20.2236 5.63362 21.1148 5.26799 21.7852 4.59768L23.7732 2.6096C24.1084 2.27444 24.5578 2.09163 25.0301 2.09163H26.584C27.0715 2.09163 27.4676 1.69553 27.4676 1.20803C27.4676 0.720534 27.0715 0.32444 26.584 0.32444H25.0301C24.0855 0.32444 23.1943 0.690065 22.524 1.36038L20.5359 3.34846C20.2084 3.676 19.7514 3.86643 19.2791 3.86643H2.46797C1.10449 3.86643 0 4.97092 0 6.32678C0 6.52483 0.0228516 6.72288 0.0761719 6.92092L1.56152 12.8623C1.78242 13.7535 2.46797 14.4772 3.34395 14.7514L18.9439 19.6797C19.2258 19.7711 19.5152 19.8168 19.8123 19.8168C21.0768 19.8168 22.1813 19.0018 22.5621 17.7983L26.3555 5.63362H31.2686L33.3328 11.8416H31.5656L31.8094 11.3541C32.0303 10.9199 31.8475 10.3867 31.4133 10.1658C30.9715 9.94495 30.4459 10.1278 30.225 10.5619L29.5852 11.8416H26.584C26.0965 11.8416 25.7004 12.2377 25.7004 12.7252C25.7004 13.2127 26.0965 13.6088 26.584 13.6088H34.2697L36.8672 15.5588C37.0881 15.7264 37.2176 15.993 37.2176 16.2672V21.584C37.2176 22.0715 36.8215 22.4676 36.334 22.4676H35.3666C34.94 19.9539 32.7615 18.0344 30.126 18.0344C27.1934 18.0344 24.8092 20.4186 24.8092 23.3512C24.8092 26.2838 27.1934 28.668 30.126 28.668C32.7539 28.668 34.94 26.7485 35.3666 24.2348H36.334C37.7965 24.2348 38.9924 23.0389 38.9924 21.5764V16.2596C39 15.4369 38.6039 14.6448 37.9336 14.1496ZM30.1336 26.9084C28.176 26.9084 26.5916 25.3164 26.5916 23.3664C26.5916 21.4164 28.1836 19.8244 30.1336 19.8244C32.0912 19.8244 33.6756 21.4164 33.6756 23.3664C33.6832 25.3164 32.0912 26.9084 30.1336 26.9084Z"/>
</mask>
<path d="M37.9336 14.1496L36.7314 15.748L36.7383 15.7532L36.7453 15.7584L37.9336 14.1496ZM35.3209 12.1844L33.4232 12.8157L33.6201 13.4077L34.1187 13.7827L35.3209 12.1844ZM32.7539 4.46819L34.6516 3.83686L34.6513 3.83573L32.7539 4.46819ZM24.8625 4.48342L26.7716 5.07959L26.7749 5.06885L24.8625 4.48342ZM20.8711 17.2651L22.776 17.8746L22.7802 17.8612L20.8711 17.2651ZM19.4848 17.9887L20.0943 16.0838L20.0859 16.0812L19.4848 17.9887ZM3.86953 13.068L3.26727 14.9752L3.26843 14.9755L3.86953 13.068ZM3.27539 12.4358L1.33507 12.9208L1.33806 12.9325L3.27539 12.4358ZM1.79004 6.49436L3.73032 6.00929L3.72224 5.97696L3.71309 5.94492L1.79004 6.49436ZM21.7852 4.59768L20.3709 3.18347L20.3709 3.18347L21.7852 4.59768ZM23.7732 2.6096L25.1875 4.02381L25.1875 4.02381L23.7732 2.6096ZM22.524 1.36038L23.9382 2.77459L23.9382 2.77459L22.524 1.36038ZM20.5359 3.34846L19.1217 1.93425L19.1217 1.93425L20.5359 3.34846ZM2.46797 3.86643V5.86643V3.86643ZM0.0761719 6.92092L2.01646 6.43585L2.01209 6.41837L2.0074 6.40098L0.0761719 6.92092ZM1.56152 12.8623L3.50278 12.3812L3.50181 12.3773L1.56152 12.8623ZM3.34395 14.7514L3.94643 12.8443L3.94144 12.8427L3.34395 14.7514ZM18.9439 19.6797L19.561 17.7773L19.5537 17.7749L19.5464 17.7726L18.9439 19.6797ZM22.5621 17.7983L24.4689 18.4017L24.4714 18.3937L22.5621 17.7983ZM26.3555 5.63362V3.63362H24.8842L24.4461 5.03823L26.3555 5.63362ZM31.2686 5.63362L33.1664 5.00256L32.7112 3.63362H31.2686V5.63362ZM33.3328 11.8416V13.8416H36.1055L35.2306 11.2106L33.3328 11.8416ZM31.5656 11.8416L29.7768 10.9472L28.3296 13.8416H31.5656V11.8416ZM31.8094 11.3541L30.0268 10.4472L30.0205 10.4597L31.8094 11.3541ZM31.4133 10.1658L32.3202 8.38325L32.3077 8.37699L31.4133 10.1658ZM30.225 10.5619L28.4424 9.655L28.4361 9.66751L30.225 10.5619ZM29.5852 11.8416V13.8416H30.8212L31.374 12.7361L29.5852 11.8416ZM34.2697 13.6088L35.4705 12.0094L34.9369 11.6088H34.2697V13.6088ZM36.8672 15.5588L38.076 13.9654L38.0679 13.9594L36.8672 15.5588ZM35.3666 22.4676L33.3948 22.8022L33.6774 24.4676H35.3666V22.4676ZM35.3666 24.2348V22.2348H33.6774L33.3948 23.9002L35.3666 24.2348ZM38.9924 16.2596L36.9925 16.2411L36.9924 16.2503V16.2596H38.9924ZM33.6756 23.3664L31.6756 23.3664L31.6756 23.3742L33.6756 23.3664ZM39.1358 12.5513L36.5231 10.5861L34.1187 13.7827L36.7314 15.748L39.1358 12.5513ZM37.2186 11.5531L34.6516 3.83686L30.8562 5.09952L33.4232 12.8157L37.2186 11.5531ZM34.6513 3.83573C34.2616 2.66679 33.1717 1.85881 31.916 1.85881V5.85881C31.422 5.85881 31.0024 5.53834 30.8565 5.10065L34.6513 3.83573ZM31.916 1.85881H25.708V5.85881H31.916V1.85881ZM25.708 1.85881C24.4458 1.85881 23.3232 2.67905 22.9501 3.898L26.7749 5.06885C26.6303 5.54131 26.1932 5.85881 25.708 5.85881V1.85881ZM22.9534 3.88726L18.962 16.6689L22.7802 17.8612L26.7716 5.07958L22.9534 3.88726ZM18.9662 16.6555C19.0461 16.406 19.2151 16.2327 19.3946 16.1385C19.5756 16.0436 19.8274 15.9984 20.0943 16.0838L18.8752 19.8935C20.5249 20.4215 22.265 19.4713 22.7759 17.8746L18.9662 16.6555ZM20.0859 16.0812L4.47064 11.1605L3.26843 14.9755L18.8837 19.8962L20.0859 16.0812ZM4.47179 11.1608C4.8525 11.281 5.12031 11.5786 5.21272 11.939L1.33806 12.9325C1.58282 13.8871 2.30766 14.6721 3.26727 14.9752L4.47179 11.1608ZM5.21568 11.9507L3.73032 6.00929L-0.150246 6.97943L1.33511 12.9208L5.21568 11.9507ZM3.71309 5.94492C3.73557 6.0236 3.74806 6.09152 3.75536 6.14625C3.76273 6.20151 3.76719 6.2613 3.76719 6.32678H-0.232812C-0.232812 6.54775 -0.204062 6.79512 -0.133009 7.0438L3.71309 5.94492ZM3.76719 6.32678C3.76719 7.05049 3.18406 7.63362 2.46035 7.63362V3.63362C0.974924 3.63362 -0.232812 4.84135 -0.232812 6.32678H3.76719ZM2.46035 7.63362H19.2791V3.63362H2.46035V7.63362ZM19.2791 7.63362C20.75 7.63362 22.1511 7.06016 23.1994 6.0119L20.3709 3.18347C20.0786 3.47582 19.6973 3.63362 19.2791 3.63362V7.63362ZM23.1994 6.0119L25.1875 4.02381L22.359 1.19538L20.3709 3.18347L23.1994 6.0119ZM25.1875 4.02381C25.1415 4.06981 25.0796 4.09163 25.0301 4.09163V0.0916271C24.036 0.0916271 23.0753 0.479072 22.359 1.19538L25.1875 4.02381ZM25.0301 4.09163H26.584V0.0916271H25.0301V4.09163ZM26.584 4.09163C28.1761 4.09163 29.4676 2.80011 29.4676 1.20803H25.4676C25.4676 0.590961 25.9669 0.0916271 26.584 0.0916271V4.09163ZM29.4676 1.20803C29.4676 -0.384039 28.1761 -1.67556 26.584 -1.67556V2.32444C25.9669 2.32444 25.4676 1.82511 25.4676 1.20803H29.4676ZM26.584 -1.67556H25.0301V2.32444H26.584V-1.67556ZM25.0301 -1.67556C23.5592 -1.67556 22.1581 -1.10211 21.1098 -0.0538363L23.9382 2.77459C24.2306 2.48224 24.6119 2.32444 25.0301 2.32444V-1.67556ZM21.1098 -0.0538367L19.1217 1.93425L21.9502 4.76268L23.9382 2.77459L21.1098 -0.0538367ZM19.1217 1.93425C19.1491 1.90685 19.1756 1.89112 19.1978 1.88194C19.2202 1.87268 19.2471 1.86643 19.2791 1.86643V5.86643C20.2796 5.86643 21.246 5.46682 21.9502 4.76268L19.1217 1.93425ZM19.2791 1.86643H2.46797V5.86643H19.2791V1.86643ZM2.46797 1.86643C0.00395084 1.86643 -2 3.86233 -2 6.32678H2C2 6.07952 2.20503 5.86643 2.46797 5.86643L2.46797 1.86643ZM-2 6.32678C-2 6.68068 -1.95889 7.05523 -1.85506 7.44087L2.0074 6.40098C2.00459 6.39053 2 6.36898 2 6.32678H-2ZM-1.86411 7.40599L-0.378762 13.3474L3.50181 12.3773L2.01646 6.43585L-1.86411 7.40599ZM-0.379734 13.3435C0.010435 14.9176 1.20912 16.1788 2.74645 16.6601L3.94144 12.8427C3.72682 12.7755 3.55441 12.5895 3.50278 12.3812L-0.379734 13.3435ZM2.74146 16.6585L18.3415 21.5868L19.5464 17.7726L3.94643 12.8443L2.74146 16.6585ZM18.3269 21.5822C18.8086 21.7384 19.3063 21.8168 19.8123 21.8168V17.8168C19.7242 17.8168 19.643 17.8039 19.561 17.7773L18.3269 21.5822ZM19.8123 21.8168C21.9548 21.8168 23.8267 20.431 24.4689 18.4017L20.6553 17.1948C20.5358 17.5725 20.1987 17.8168 19.8123 17.8168V21.8168ZM24.4714 18.3937L28.2648 6.22901L24.4461 5.03823L20.6528 17.2029L24.4714 18.3937ZM26.3555 7.63362H31.2686V3.63362H26.3555V7.63362ZM29.3707 6.26468L31.435 12.4727L35.2306 11.2106L33.1664 5.00256L29.3707 6.26468ZM33.3328 9.84163H31.5656V13.8416H33.3328V9.84163ZM33.3545 12.7361L33.5982 12.2486L30.0205 10.4597L29.7768 10.9472L33.3545 12.7361ZM33.5919 12.261C34.3301 10.8101 33.7063 9.08849 32.3202 8.38329L30.5064 11.9484C29.9887 11.685 29.7304 11.0298 30.0268 10.4472L33.5919 12.261ZM32.3077 8.37699C30.8578 7.65202 29.1489 8.26641 28.4424 9.65502L32.0076 11.4689C31.7429 11.9891 31.0852 12.2379 30.5189 11.9547L32.3077 8.37699ZM28.4361 9.66751L27.7963 10.9472L31.374 12.7361L32.0139 11.4564L28.4361 9.66751ZM29.5852 9.84163H26.584V13.8416H29.5852V9.84163ZM26.584 9.84163C24.9919 9.84163 23.7004 11.1331 23.7004 12.7252H27.7004C27.7004 13.3423 27.201 13.8416 26.584 13.8416V9.84163ZM23.7004 12.7252C23.7004 14.3173 24.9919 15.6088 26.584 15.6088V11.6088C27.2011 11.6088 27.7004 12.1081 27.7004 12.7252H23.7004ZM26.584 15.6088H34.2697V11.6088H26.584V15.6088ZM33.069 15.2083L35.6664 17.1583L38.0679 13.9594L35.4705 12.0094L33.069 15.2083ZM35.6584 17.1522C35.3725 16.9353 35.2176 16.6081 35.2176 16.2672H39.2176C39.2176 15.3779 38.8036 14.5175 38.076 13.9654L35.6584 17.1522ZM35.2176 16.2672V21.584H39.2176V16.2672H35.2176ZM35.2176 21.584C35.2176 20.9669 35.7169 20.4676 36.334 20.4676V24.4676C37.9261 24.4676 39.2176 23.1761 39.2176 21.584H35.2176ZM36.334 20.4676H35.3666V24.4676H36.334V20.4676ZM37.3384 22.133C36.7526 18.681 33.7605 16.0344 30.126 16.0344V20.0344C31.7625 20.0344 33.1275 21.2269 33.3948 22.8022L37.3384 22.133ZM30.126 16.0344C26.0888 16.0344 22.8092 19.314 22.8092 23.3512H26.8092C26.8092 21.5231 28.2979 20.0344 30.126 20.0344V16.0344ZM22.8092 23.3512C22.8092 27.3884 26.0888 30.668 30.126 30.668V26.668C28.2979 26.668 26.8092 25.1792 26.8092 23.3512H22.8092ZM30.126 30.668C33.7511 30.668 36.7523 28.0231 37.3384 24.5694L33.3948 23.9002C33.1278 25.4738 31.7567 26.668 30.126 26.668V30.668ZM35.3666 26.2348H36.334V22.2348H35.3666V26.2348ZM36.334 26.2348C38.9011 26.2348 40.9924 24.1435 40.9924 21.5764H36.9924C36.9924 21.9343 36.6919 22.2348 36.334 22.2348V26.2348ZM40.9924 21.5764V16.2596H36.9924V21.5764H40.9924ZM40.9923 16.2781C41.0059 14.8083 40.303 13.4134 39.1219 12.5409L36.7453 15.7584C36.9048 15.8761 36.9941 16.0656 36.9925 16.2411L40.9923 16.2781ZM30.1336 24.9084C29.2833 24.9084 28.5916 24.2147 28.5916 23.3664H24.5916C24.5916 26.4182 27.0686 28.9084 30.1336 28.9084V24.9084ZM28.5916 23.3664C28.5916 22.521 29.2882 21.8244 30.1336 21.8244V17.8244C27.079 17.8244 24.5916 20.3119 24.5916 23.3664H28.5916ZM30.1336 21.8244C30.9838 21.8244 31.6756 22.5182 31.6756 23.3664H35.6756C35.6756 20.3147 33.1986 17.8244 30.1336 17.8244V21.8244ZM31.6756 23.3742C31.6789 24.2093 30.991 24.9084 30.1336 24.9084V28.9084C33.1914 28.9084 35.6875 26.4236 35.6756 23.3586L31.6756 23.3742Z" fill="black" mask="url(#path-4-inside-1)"/>
<path d="M7.0916 7.40842C6.6041 7.40842 6.20801 7.80451 6.20801 8.29201V10.9504C6.20801 11.4379 6.6041 11.834 7.0916 11.834C7.5791 11.834 7.97519 11.4379 7.97519 10.9504V8.29201C7.97519 7.80451 7.5791 7.40842 7.0916 7.40842Z" fill="#ED204C"/>
<path d="M10.6336 7.40842C10.1461 7.40842 9.75 7.80451 9.75 8.29201V11.834C9.75 12.3215 10.1461 12.7176 10.6336 12.7176C11.1211 12.7176 11.5172 12.3215 11.5172 11.834V8.29201C11.5248 7.80451 11.1287 7.40842 10.6336 7.40842Z" fill="#ED204C"/>
<path d="M14.1832 7.40842C13.6957 7.40842 13.2996 7.80451 13.2996 8.29201V12.7252C13.2996 13.2127 13.6957 13.6088 14.1832 13.6088C14.6707 13.6088 15.0667 13.2127 15.0667 12.7252V8.29201C15.0667 7.80451 14.6707 7.40842 14.1832 7.40842Z" fill="#ED204C"/>
<path d="M17.7251 7.40842C17.2376 7.40842 16.8416 7.80451 16.8416 8.29201V13.6088C16.8416 14.0963 17.2376 14.4924 17.7251 14.4924C18.2126 14.4924 18.6087 14.0963 18.6087 13.6088V8.29201C18.6164 7.80451 18.2203 7.40842 17.7251 7.40842Z" fill="#ED204C"/>
</svg>
