<svg width="34" height="34" viewBox="0 0 34 34" fill="none" xmlns="http://www.w3.org/2000/svg">
<path d="M13.6987 28.832C12.2073 28.215 10.8693 27.3214 9.72141 26.1759C7.8343 24.2933 6.6367 21.9173 6.25842 19.3045C6.21499 18.9998 5.92857 18.7877 5.62705 18.8327C5.32275 18.8767 5.11161 19.1595 5.15562 19.4642C5.56818 22.3172 6.87511 24.9109 8.93425 26.9648C10.1857 28.214 11.6455 29.1887 13.2725 29.8619C13.4101 29.9188 13.5174 30.026 13.5746 30.1635C13.6317 30.3009 13.6317 30.4523 13.5746 30.5903C13.4602 30.8669 13.126 31.0085 12.8468 30.892C11.0838 30.1626 9.50251 29.1069 8.14611 27.7538C5.79426 25.4073 4.35776 22.4346 3.99198 19.1571C3.95769 18.8514 3.68442 18.6316 3.37579 18.6651C3.06994 18.6992 2.85006 18.975 2.88378 19.2809C3.27839 22.8128 4.82584 26.0156 7.35911 28.5432C8.81888 29.9998 10.5221 31.1366 12.4201 31.922C12.6242 32.0064 12.8393 32.0493 13.0591 32.0493C13.7384 32.0493 14.3454 31.6436 14.6045 31.0168C14.7754 30.6039 14.7754 30.1494 14.6045 29.7367C14.433 29.324 14.1118 29.003 13.6987 28.832Z" fill="black"/>
<path d="M32.8144 11.5634C32.46 10.7122 31.4796 10.3072 30.6283 10.6606C30.2163 10.832 29.8952 11.1537 29.7248 11.5665C29.5545 11.9794 29.555 12.4339 29.726 12.846C30.3427 14.331 30.6551 15.906 30.6551 17.5272C30.6551 20.7943 29.3797 23.8655 27.0648 26.1753C26.5211 26.7176 25.93 27.2079 25.3067 27.6329C25.0525 27.8065 24.9866 28.1533 25.1602 28.4075C25.3334 28.6621 25.6823 28.727 25.9348 28.554C26.6147 28.0901 27.2597 27.5554 27.8519 26.9647C30.3786 24.4441 31.7698 21.0925 31.7698 17.5272C31.7698 15.7588 31.4285 14.04 30.7558 12.4185C30.6986 12.281 30.6981 12.1295 30.7552 11.992C30.8118 11.8545 30.9191 11.7472 31.0562 11.6902C31.3403 11.5724 31.6669 11.7073 31.7846 11.9911C32.5146 13.7477 32.8847 15.6102 32.8847 17.5271C32.8847 21.3906 31.3775 25.0225 28.6401 27.7536C27.8133 28.5785 26.8934 29.2999 25.9065 29.8976C25.6431 30.0569 25.5585 30.3998 25.7182 30.6631C25.8232 30.8362 26.0072 30.9319 26.1956 30.9319C26.2941 30.9319 26.3937 30.9057 26.4833 30.8509C27.5469 30.2069 28.537 29.4304 29.4269 28.5425C32.3756 25.6006 33.9992 21.6885 33.9992 17.5269C33.9993 15.4626 33.6004 13.4562 32.8144 11.5634Z" fill="black"/>
<path d="M24.3664 3.13254C22.4712 2.34832 20.4615 1.95062 18.3936 1.95062C14.683 1.95062 11.0873 3.27257 8.26815 5.67332C7.42016 6.39574 6.6477 7.21049 5.97223 8.09522C5.41262 8.82817 5.5542 9.87954 6.28633 10.4387C6.58034 10.6632 6.93077 10.782 7.29932 10.782C7.2999 10.782 7.2999 10.782 7.3003 10.7821C7.8266 10.7821 8.31167 10.5425 8.63066 10.1246C9.16145 9.42909 9.76882 8.78808 10.4367 8.21973C12.6515 6.33385 15.4771 5.29513 18.3935 5.29513C20.0205 5.29513 21.5996 5.60743 23.0878 6.22313C23.3741 6.34087 23.6985 6.20599 23.8161 5.9212C23.9337 5.63683 23.7987 5.31073 23.5146 5.19299C21.8904 4.52095 20.1676 4.18024 18.3937 4.18024C15.2126 4.18024 12.1301 5.31326 9.71396 7.37085C8.98616 7.99079 8.32318 8.68978 7.74463 9.4482C7.63857 9.5874 7.47642 9.66726 7.29998 9.66726C7.17751 9.66726 7.061 9.62782 6.96302 9.55287C6.71914 9.36655 6.67178 9.01612 6.85851 8.77167C7.48556 7.94997 8.20357 7.19302 8.99122 6.52213C11.6089 4.29316 14.9482 3.06551 18.3938 3.06551C20.3146 3.06551 22.1805 3.43464 23.9408 4.16285C24.2244 4.28058 24.551 4.14554 24.6686 3.86092C24.7861 3.57638 24.6511 3.25028 24.3664 3.13254Z" fill="black"/>
<path d="M31.6666 7.75812L26.4946 0.512186C26.383 0.355261 26.1969 0.267817 26.0052 0.2799C25.8126 0.292311 25.64 0.403514 25.5491 0.573667L21.8032 7.59679C21.7122 7.76735 21.7166 7.97285 21.8135 8.13982C21.9109 8.30679 22.0877 8.41138 22.281 8.41628L31.1991 8.63909C31.204 8.63926 31.2089 8.63926 31.2133 8.63926C31.4189 8.63926 31.6088 8.52552 31.7058 8.34329C31.8043 8.15664 31.7897 7.93007 31.6666 7.75812ZM23.2118 7.32433L26.1096 1.89129L30.1109 7.49652L23.2118 7.32433Z" fill="#ED204C"/>
<path d="M27.2947 33.027L25.3193 25.2237C25.2708 25.0324 25.1249 24.881 24.9355 24.8256C24.7456 24.7703 24.5415 24.8191 24.3972 24.9541L18.0119 30.9461C17.8611 31.0878 17.8012 31.3016 17.8563 31.5012C17.9119 31.7009 18.073 31.8534 18.2755 31.8972L26.6362 33.7085C26.6754 33.7172 26.7152 33.7212 26.7543 33.7212C26.904 33.7212 27.0487 33.6608 27.1548 33.551C27.2892 33.4123 27.342 33.214 27.2947 33.027ZM19.5492 31.0325L24.4708 26.4142L25.9933 32.4286L19.5492 31.0325Z" fill="#ED204C"/>
<path d="M8.8594 18.9801L4.95773 11.1768C4.76839 10.7994 4.14991 10.7994 3.96057 11.1768L0.0588983 18.9801C-0.0276477 19.153 -0.0182583 19.3581 0.0833924 19.5224C0.185125 19.6867 0.364177 19.7868 0.557436 19.7868H8.3607C8.5538 19.7868 8.73293 19.6868 8.83474 19.5224C8.93672 19.3581 8.94595 19.1529 8.8594 18.9801ZM1.45931 18.672L4.45911 12.6724L7.45874 18.672H1.45931Z" fill="#ED204C"/>
</svg>
