<svg width="32" height="33" viewBox="0 0 32 33" fill="none" xmlns="http://www.w3.org/2000/svg">
<path d="M24.912 23.5858C24.9896 23.6633 25.0864 23.715 25.1898 23.7279L27.1857 24.0574C27.2632 23.9928 27.3472 23.9411 27.4312 23.8894C27.5216 23.8313 27.6185 23.7732 27.696 23.6956C27.78 23.6181 27.851 23.5342 27.935 23.4631C28.019 23.3921 28.1159 23.3404 28.2063 23.2822C28.245 23.2564 28.2773 23.2306 28.3096 23.1983L25.5192 22.7332L19.2925 16.5L25.5257 10.2667L28.413 9.7823C28.3226 9.71124 28.2257 9.65311 28.1288 9.58852C28.019 9.50455 27.9156 9.41412 27.8058 9.33014C27.696 9.24617 27.5733 9.17512 27.457 9.09761C27.4053 9.06531 27.3472 9.03302 27.302 8.99426C27.2762 8.97488 27.2503 8.9555 27.218 8.93613L25.1898 9.27201C25.0864 9.29139 24.9831 9.34306 24.912 9.41412L18.1944 16.1318C17.9941 16.332 17.9941 16.6615 18.1944 16.8617L24.912 23.5858Z" fill="black"/>
<path d="M31.8492 26.4667L28.7487 23.3662C28.6712 23.2887 28.5743 23.237 28.471 23.2241L28.3999 23.2112C28.3547 23.2564 28.3031 23.3016 28.2449 23.3339C28.148 23.3985 28.0511 23.4502 27.9607 23.5277C27.8767 23.5988 27.8057 23.6892 27.7217 23.7667C27.5861 23.8894 27.4246 23.9669 27.276 24.0703L27.3083 24.0767L24.0787 27.3064V27.2999C23.9172 27.5066 23.7622 27.7133 23.5878 27.9071C23.4586 28.0492 23.31 28.1978 23.2131 28.3722L23.2325 28.4691C23.2519 28.5724 23.3036 28.6758 23.3746 28.7468L26.4751 31.8473C26.6753 32.0475 27.0047 32.0475 27.205 31.8473L31.8557 27.1966C32.0494 26.9963 32.0494 26.6734 31.8492 26.4667ZM26.8303 30.7557L24.4598 28.3851L28.3806 24.4643L30.7511 26.8349L26.8303 30.7557Z" fill="#ED204C"/>
<path d="M14.7969 16.1318L8.07919 9.41412C8.00167 9.3366 7.90479 9.28493 7.80144 9.27201L5.78613 8.93613C5.68924 9.00718 5.57943 9.05885 5.489 9.12991C5.43087 9.17512 5.3792 9.2268 5.32106 9.27847C5.26939 9.33014 5.21771 9.38182 5.1725 9.43995C5.12728 9.49163 5.07561 9.5433 5.02393 9.58852C4.9658 9.63373 4.90767 9.67249 4.84953 9.72416C4.81078 9.75 4.77202 9.7823 4.73327 9.81459L7.47201 10.2732L13.7052 16.5064L7.47201 22.7397L4.72681 23.1983C4.89475 23.3533 5.04977 23.5083 5.22417 23.6569C5.32752 23.7473 5.42441 23.8313 5.53422 23.9153C5.61173 23.9734 5.68924 24.0315 5.77321 24.0703L7.8079 23.7279C7.91124 23.7086 8.01459 23.6569 8.08565 23.5858L14.8033 16.8682C14.9971 16.6615 14.9971 16.3385 14.7969 16.1318Z" fill="black"/>
<path d="M8.91876 27.2999V27.3064L5.72787 24.122C5.63744 24.0767 5.55347 24.0122 5.4695 23.954C5.24988 23.7796 5.04318 23.5923 4.84294 23.405C4.77189 23.3404 4.7073 23.2758 4.63625 23.2112L4.52644 23.2306C4.42309 23.25 4.31974 23.3016 4.24869 23.3727L1.14823 26.4731C0.947987 26.6734 0.947987 27.0028 1.14823 27.203L5.79892 31.8537C5.99916 32.054 6.32858 32.054 6.52882 31.8537L9.62928 28.7533C9.70679 28.6758 9.75847 28.5789 9.77139 28.4755L9.77785 28.4432C9.66158 28.2818 9.55823 28.1138 9.44196 27.9523C9.28048 27.7198 9.09316 27.5196 8.91876 27.2999ZM6.16064 30.7557L2.23985 26.8349L4.61041 24.4643L8.5312 28.3851L6.16064 30.7557Z" fill="#ED204C"/>
<path d="M23.7236 25.2007C23.7042 25.0973 23.6525 24.994 23.5815 24.9229L16.8638 18.2052C16.6636 18.005 16.3341 18.005 16.1339 18.2052L9.41622 24.9229C9.33871 25.0004 9.28703 25.0973 9.27412 25.2007L8.93823 27.216C9.11909 27.4485 9.32579 27.6617 9.50019 27.9007C9.60354 28.0492 9.70043 28.1978 9.79732 28.3464L10.2688 25.5301L16.5021 19.2969L22.7353 25.5301L23.1939 28.2753C23.2844 28.1332 23.4071 28.0105 23.5233 27.8813C23.7171 27.6681 23.8851 27.4356 24.0659 27.216L23.7236 25.2007Z" fill="black"/>
<path d="M23.8847 5.56437C23.8524 5.5127 23.8072 5.47394 23.7684 5.42227C23.7232 5.36414 23.6845 5.306 23.6457 5.24787C23.5682 5.12514 23.4842 5.00242 23.4067 4.87969C23.3615 4.8151 23.3163 4.7505 23.2711 4.68591C23.2517 4.66007 23.2323 4.63424 23.2129 4.6084L22.7349 7.46341L16.4952 13.7031L10.262 7.46987L9.8034 4.72467C9.75819 4.79572 9.70651 4.86677 9.65484 4.93782C9.57733 5.04117 9.51273 5.15098 9.42876 5.24787C9.34479 5.35122 9.25436 5.45457 9.16393 5.55146C9.11872 5.59667 9.07996 5.64189 9.02829 5.67418C9.00245 5.69356 8.94432 5.72586 8.9314 5.76461L9.27374 7.79929C9.29312 7.90264 9.34479 8.00599 9.41584 8.07704L16.1335 14.7947C16.3338 14.995 16.6632 14.995 16.8634 14.7947L23.5811 8.07704C23.6586 7.99953 23.7103 7.90264 23.7232 7.79929L24.0591 5.78399C23.9816 5.73232 23.9364 5.63543 23.8847 5.56437Z" fill="black"/>
<path d="M31.8495 5.79688L27.1988 1.14618C26.9986 0.945943 26.6691 0.945943 26.4689 1.14618L23.3684 4.24665C23.2974 4.3177 23.2457 4.41459 23.2263 4.51794C23.2586 4.56961 23.2974 4.61483 23.3361 4.66004C23.3813 4.71172 23.4201 4.76985 23.4589 4.82799C23.5364 4.94425 23.6139 5.06698 23.6914 5.18325C23.7301 5.24138 23.7624 5.29306 23.8077 5.35119C23.8464 5.40286 23.8916 5.44808 23.9304 5.49975C23.9627 5.54497 23.995 5.59018 24.0208 5.6354C24.0402 5.66124 24.0531 5.68061 24.0789 5.69999V5.68061L27.2828 8.88443C27.3022 8.89735 27.3215 8.91027 27.3409 8.92319C27.399 8.9684 27.4636 9.00716 27.5218 9.04591C27.638 9.12342 27.7543 9.19448 27.8641 9.27845C27.9739 9.36242 28.0773 9.45285 28.1871 9.53036C28.2904 9.60141 28.3938 9.66601 28.4907 9.74352C28.5811 9.72414 28.6715 9.67247 28.7361 9.60787L31.8366 6.50741C32.0498 6.32654 32.0498 6.00358 31.8495 5.79688ZM28.3809 8.53563L24.46 4.61483L26.8306 2.24426L30.7514 6.16506L28.3809 8.53563Z" fill="#ED204C"/>
<path d="M4.24321 9.63371C4.32072 9.71122 4.41761 9.76289 4.52096 9.77581L4.63723 9.79519C4.67598 9.75643 4.7212 9.72414 4.76641 9.69184C4.88268 9.60141 4.99895 9.5239 5.09584 9.41409C5.19919 9.29782 5.30254 9.18802 5.4188 9.09113C5.50277 9.02653 5.59966 8.98132 5.68364 8.92318H5.67718L8.87453 5.73229C8.88745 5.70645 8.91329 5.68061 8.93913 5.66124C8.98434 5.62894 9.0231 5.59664 9.06185 5.55789C9.1652 5.461 9.25563 5.35765 9.34606 5.24784C9.43003 5.13803 9.50754 5.02822 9.58506 4.91196C9.65611 4.81507 9.72716 4.72464 9.7853 4.62129L9.77238 4.5244C9.753 4.42105 9.70132 4.3177 9.63027 4.24665L6.5298 1.14618C6.32957 0.945943 6.00014 0.945943 5.7999 1.14618L1.1492 5.79688C0.948964 5.99712 0.948964 6.32654 1.1492 6.52678L4.24321 9.63371ZM6.16162 2.24426L8.53219 4.61483L4.61139 8.53563L2.24082 6.16506L6.16162 2.24426Z" fill="#ED204C"/>
</svg>
