<svg width="21" height="28" viewBox="0 0 21 28" fill="none" xmlns="http://www.w3.org/2000/svg">
<path d="M10.62 27.36C7.692 27.36 5.496 26.712 4.032 25.416C2.592 24.12 1.872 22.332 1.872 20.052C1.872 19.332 1.956 18.684 2.124 18.108H0.36V15.444H3.492C3.924 14.94 4.44 14.472 5.04 14.04C5.64 13.608 6.312 13.212 7.056 12.852H0.36V10.188H12.384C13.008 9.612 13.32 8.856 13.32 7.92C13.32 7.152 13.032 6.552 12.456 6.12C11.904 5.688 11.1 5.472 10.044 5.472C9.084 5.472 8.112 5.604 7.128 5.868C6.168 6.132 5.088 6.504 3.888 6.984L2.268 2.736C3.516 2.184 4.812 1.752 6.156 1.44C7.524 1.104 8.964 0.935999 10.476 0.935999C12.972 0.935999 14.952 1.548 16.416 2.772C17.904 3.972 18.648 5.724 18.648 8.028C18.648 8.772 18.552 9.492 18.36 10.188H20.196V12.852H16.848C16.32 13.452 15.696 13.956 14.976 14.364C14.256 14.748 13.512 15.108 12.744 15.444H20.196V18.108H7.884C7.428 18.636 7.2 19.284 7.2 20.052C7.2 20.94 7.512 21.636 8.136 22.14C8.76 22.62 9.696 22.86 10.944 22.86C12.24 22.86 13.512 22.716 14.76 22.428C16.008 22.116 17.256 21.708 18.504 21.204V25.74C17.472 26.244 16.284 26.64 14.94 26.928C13.596 27.216 12.156 27.36 10.62 27.36Z" fill="black"/>
</svg>
