<svg width="30" height="30" viewBox="0 0 30 30" fill="none" xmlns="http://www.w3.org/2000/svg">
<g clip-path="url(#clip0)">
<path d="M15.1316 27.2407L22.4649 14.9966L15.1316 27.2407ZM15.1316 27.2407L7.60652 15.1141L15.1316 27.2407ZM6.29922 10.5469C6.29922 12.1656 6.7587 13.7449 7.60647 15.114L6.29922 10.5469ZM6.29922 10.5469C6.29922 5.75581 10.2089 1.84609 15 1.84609M6.29922 10.5469L15 1.84609M15 1.84609C19.791 1.84609 23.6949 5.75573 23.6949 10.5469M15 1.84609L23.6949 10.5469M23.6949 10.5469C23.6949 12.1178 23.2657 13.6567 22.465 14.9965L23.6949 10.5469ZM5.94246 16.1455L5.94251 16.1456L14.3147 29.6372C14.4933 29.9251 14.808 30.1 15.1464 30.1H15.1465H15.1465H15.1465H15.1465H15.1466H15.1466H15.1466H15.1466H15.1467H15.1467H15.1467H15.1468H15.1468H15.1468H15.1468H15.1469H15.1469H15.1469H15.1469H15.147H15.147H15.147H15.1471H15.1471H15.1471H15.1471H15.1472H15.1472H15.1472H15.1472H15.1473H15.1473H15.1473H15.1474H15.1474H15.1474H15.1474H15.1475H15.1475H15.1475H15.1475H15.1476H15.1476H15.1476H15.1477H15.1477H15.1477H15.1477H15.1478H15.1478H15.1478H15.1478H15.1479H15.1479H15.1479H15.148H15.148H15.148H15.148H15.1481H15.1481H15.1481H15.1481H15.1482H15.1482H15.1482H15.1483H15.1483H15.1483H15.1483H15.1484H15.1484H15.1484H15.1484H15.1485H15.1485H15.1485H15.1486H15.1486H15.1486H15.1486H15.1487H15.1487H15.1487H15.1487H15.1488H15.1488H15.1488H15.1489H15.1489H15.1489H15.1489H15.149H15.149H15.149H15.149H15.1491H15.1491H15.1491H15.1492H15.1492H15.1492H15.1492H15.1493H15.1493H15.1493H15.1493H15.1494H15.1494H15.1494H15.1495H15.1495H15.1495H15.1495H15.1496H15.1496H15.1496H15.1496H15.1497H15.1497H15.1497H15.1497H15.1498H15.1498H15.1498H15.1499H15.1499H15.1499H15.1499H15.15H15.15H15.15H15.15H15.1501H15.1501H15.1501H15.1502H15.1502H15.1502H15.1502H15.1503H15.1503H15.1503H15.1503H15.1504H15.1504H15.1504H15.1505H15.1505H15.1505H15.1505H15.1506H15.1506H15.1506H15.1506H15.1507H15.1507H15.1507H15.1508H15.1508H15.1508H15.1508H15.1509H15.1509H15.1509H15.1509H15.151H15.151H15.151H15.1511H15.1511H15.1511H15.1511H15.1512H15.1512H15.1512H15.1512H15.1513H15.1513H15.1513H15.1514H15.1514H15.1514H15.1514H15.1515H15.1515H15.1515H15.1515H15.1516H15.1516H15.1516H15.1517H15.1517H15.1517H15.1517H15.1518H15.1518H15.1518H15.1518H15.1519H15.1519H15.1519H15.1519H15.152H15.152H15.152H15.1521H15.1521H15.1521H15.1521H15.1522H15.1522H15.1522H15.1523H15.1523H15.1523H15.1523H15.1524H15.1524H15.1524H15.1524H15.1525H15.1525H15.1525H15.1526H15.1526H15.1526H15.1526H15.1527H15.1527H15.1527H15.1527H15.1528H15.1528H15.1528H15.1529H15.1529H15.1529H15.1529H15.153H15.153H15.153H15.153H15.1531H15.1531H15.1531H15.1532H15.1532H15.1532H15.1532H15.1533H15.1533H15.1533H15.1533H15.1534L15.1534 30.1L15.1542 30.1C15.4956 30.0973 15.8109 29.917 15.9863 29.6241L24.145 16.0018L24.1451 16.0017C25.1276 14.3577 25.6469 12.4714 25.6469 10.5469C25.6469 4.6761 20.8708 -0.1 15 -0.1C9.12922 -0.1 4.35312 4.6761 4.35312 10.5469C4.35312 12.5303 4.90254 14.4661 5.94246 16.1455Z" fill="#ED204C" stroke="#ED204C" stroke-width="0.2"/>
<path d="M15 5.17344C12.037 5.17344 9.62656 7.58387 9.62656 10.5469C9.62656 13.4906 11.9978 15.9203 15 15.9203C18.0394 15.9203 20.3734 13.458 20.3734 10.5469C20.3734 7.58387 17.963 5.17344 15 5.17344ZM15 13.9742C13.1067 13.9742 11.5727 12.4351 11.5727 10.5469C11.5727 8.66359 13.1167 7.11953 15 7.11953C16.8831 7.11953 18.4215 8.66337 18.4215 10.5469C18.4215 12.4081 16.9229 13.9742 15 13.9742Z" fill="#ED204C" stroke="#ED204C" stroke-width="0.2"/>
</g>
<defs>
<clipPath id="clip0">
<rect width="30" height="30" fill="white"/>
</clipPath>
</defs>
</svg>
