<svg width="24" height="18" viewBox="0 0 24 18" fill="none" xmlns="http://www.w3.org/2000/svg">
<path d="M12.516 11.6577L21.525 3.84991V15.1875C21.525 15.5116 21.2616 15.775 20.9375 15.775H3.06251C2.73841 15.775 2.47499 15.5116 2.47499 15.1875V3.84991L11.484 11.6577L11.4841 11.6578C11.6324 11.7861 11.8163 11.85 12 11.85C12.1836 11.85 12.3675 11.7862 12.5159 11.6578L12.516 11.6577ZM20.9375 0.65H3.06251C1.86995 0.65 0.9 1.61995 0.9 2.81251V15.1875C0.9 16.3801 1.86995 17.35 3.06251 17.35H20.9375C22.1301 17.35 23.1 16.3801 23.1 15.1875V2.81251C23.1 1.61995 22.1301 0.65 20.9375 0.65ZM20.9375 2.22499C20.9557 2.22499 20.9736 2.22586 20.9914 2.22753L12 10.0205L3.00855 2.22754C3.02632 2.22586 3.0443 2.22499 3.06247 2.22499H20.9375Z" fill="#ED204C" stroke="#ED204C" stroke-width="0.2"/>
</svg>
