<svg width="59" height="69" viewBox="0 0 59 69" fill="none" xmlns="http://www.w3.org/2000/svg">
<mask id="path-1-outside-1" maskUnits="userSpaceOnUse" x="0" y="0" width="59" height="69" fill="black">
<rect fill="white" width="59" height="69"/>
<path d="M58.2742 30.3741C58.2742 19.7784 50.2785 11.0284 40.007 9.8051L34.6091 3.16129C33.4928 1.78779 31.8373 1 30.0672 1H23.0614C19.8346 1 17.2097 3.62597 17.2097 6.85277C17.2097 8.2079 17.6841 9.52953 18.5443 10.5724L22.842 15.7908C22.4811 16.155 22.1277 16.5289 21.7916 16.9222L21.1421 17.6819L24.7223 21.2621C22.6691 23.9724 21.5323 27.304 21.5323 30.7177C21.5323 36.4743 24.6618 41.5015 29.2999 44.2258H6.40323V43.1452H4.24194V44.2258H1V46.3871H4.24194V47.4677H6.40323V46.3871H12.8871V50.7097H8.56452V58.2742C8.56452 60.0616 10.0191 61.5161 11.8065 61.5161H12.8871V64.7581C12.8871 66.5455 14.3416 68 16.129 68H18.2903C20.0777 68 21.5323 66.5455 21.5323 64.7581V61.5161H45.3065V64.7581C45.3065 66.5455 46.761 68 48.5484 68H50.7097C52.4971 68 53.9516 66.5455 53.9516 64.7581V61.5161H55.0323C56.8196 61.5161 58.2742 60.0616 58.2742 58.2742V44.2258H52.9401C56.3528 40.4381 58.2742 35.5234 58.2742 30.3741ZM20.2128 9.19886C19.6703 8.54074 19.371 7.70648 19.371 6.85277C19.371 4.81684 21.0265 3.16129 23.0625 3.16129H30.0683C31.1846 3.16129 32.2285 3.65839 32.932 4.52506L37.1022 9.65813C36.2247 9.6765 35.3548 9.74998 34.4957 9.8775L31.2527 5.8856C30.9609 5.52682 30.5286 5.32258 30.0672 5.32258H23.0625C22.2185 5.32258 21.5323 6.00879 21.5323 6.85277C21.5323 7.20074 21.6533 7.54331 21.8813 7.82536L26.1855 13.0514C25.5836 13.4469 25.0033 13.8748 24.4424 14.3341L20.2128 9.19886ZM32.115 10.3735C30.7145 10.755 29.3615 11.2834 28.0756 11.9469L24.3992 7.48387H29.7668L32.115 10.3735ZM24.102 17.5857C27.6066 13.9007 32.4511 11.8065 37.5453 11.8065C47.7833 11.8065 56.1129 20.1361 56.1129 30.3741C56.1129 35.4683 54.0186 40.3128 50.3336 43.8173L39.5412 33.0249L38.7804 33.6874C38.3557 34.058 37.6425 34.5 36.6613 34.5C34.8739 34.5 33.4194 33.0455 33.4194 31.2581C33.4194 30.2758 33.8613 29.5647 34.2309 29.1389L34.8944 28.3792L24.102 17.5857ZM47.686 44.2258H45.1227C45.6533 43.9146 46.1645 43.5699 46.6573 43.197L47.686 44.2258ZM23.6936 30.7177C23.6936 27.8746 24.6089 25.0973 26.2666 22.8053L32.0059 28.5446C31.5196 29.3702 31.2581 30.3049 31.2581 31.2581C31.2581 34.2374 33.682 36.6613 36.6613 36.6613C37.6133 36.6613 38.5492 36.4009 39.3737 35.9146L45.113 41.6539C42.822 43.3105 40.0448 44.2258 37.2016 44.2258C29.7527 44.2258 23.6936 38.1666 23.6936 30.7177ZM19.371 46.3871H36.6613V46.3601C36.8418 46.3655 37.019 46.3871 37.2016 46.3871C39.2516 46.3871 41.2692 45.9678 43.1452 45.1995V50.7097H19.371V46.3871ZM15.0484 46.3871H17.2097V50.7097H15.0484V46.3871ZM19.371 64.7581C19.371 65.3546 18.8858 65.8387 18.2903 65.8387H16.129C15.5336 65.8387 15.0484 65.3546 15.0484 64.7581V61.5161H19.371V64.7581ZM51.7903 64.7581C51.7903 65.3546 51.3051 65.8387 50.7097 65.8387H48.5484C47.953 65.8387 47.4677 65.3546 47.4677 64.7581V61.5161H51.7903V64.7581ZM56.1129 46.3871V58.2742C56.1129 58.8707 55.6277 59.3548 55.0323 59.3548H11.8065C11.211 59.3548 10.7258 58.8707 10.7258 58.2742V52.871H45.3065V46.3871H49.8473H50.6935H56.1129Z"/>
</mask>
<path d="M58.2742 30.3741C58.2742 19.7784 50.2785 11.0284 40.007 9.8051L34.6091 3.16129C33.4928 1.78779 31.8373 1 30.0672 1H23.0614C19.8346 1 17.2097 3.62597 17.2097 6.85277C17.2097 8.2079 17.6841 9.52953 18.5443 10.5724L22.842 15.7908C22.4811 16.155 22.1277 16.5289 21.7916 16.9222L21.1421 17.6819L24.7223 21.2621C22.6691 23.9724 21.5323 27.304 21.5323 30.7177C21.5323 36.4743 24.6618 41.5015 29.2999 44.2258H6.40323V43.1452H4.24194V44.2258H1V46.3871H4.24194V47.4677H6.40323V46.3871H12.8871V50.7097H8.56452V58.2742C8.56452 60.0616 10.0191 61.5161 11.8065 61.5161H12.8871V64.7581C12.8871 66.5455 14.3416 68 16.129 68H18.2903C20.0777 68 21.5323 66.5455 21.5323 64.7581V61.5161H45.3065V64.7581C45.3065 66.5455 46.761 68 48.5484 68H50.7097C52.4971 68 53.9516 66.5455 53.9516 64.7581V61.5161H55.0323C56.8196 61.5161 58.2742 60.0616 58.2742 58.2742V44.2258H52.9401C56.3528 40.4381 58.2742 35.5234 58.2742 30.3741ZM20.2128 9.19886C19.6703 8.54074 19.371 7.70648 19.371 6.85277C19.371 4.81684 21.0265 3.16129 23.0625 3.16129H30.0683C31.1846 3.16129 32.2285 3.65839 32.932 4.52506L37.1022 9.65813C36.2247 9.6765 35.3548 9.74998 34.4957 9.8775L31.2527 5.8856C30.9609 5.52682 30.5286 5.32258 30.0672 5.32258H23.0625C22.2185 5.32258 21.5323 6.00879 21.5323 6.85277C21.5323 7.20074 21.6533 7.54331 21.8813 7.82536L26.1855 13.0514C25.5836 13.4469 25.0033 13.8748 24.4424 14.3341L20.2128 9.19886ZM32.115 10.3735C30.7145 10.755 29.3615 11.2834 28.0756 11.9469L24.3992 7.48387H29.7668L32.115 10.3735ZM24.102 17.5857C27.6066 13.9007 32.4511 11.8065 37.5453 11.8065C47.7833 11.8065 56.1129 20.1361 56.1129 30.3741C56.1129 35.4683 54.0186 40.3128 50.3336 43.8173L39.5412 33.0249L38.7804 33.6874C38.3557 34.058 37.6425 34.5 36.6613 34.5C34.8739 34.5 33.4194 33.0455 33.4194 31.2581C33.4194 30.2758 33.8613 29.5647 34.2309 29.1389L34.8944 28.3792L24.102 17.5857ZM47.686 44.2258H45.1227C45.6533 43.9146 46.1645 43.5699 46.6573 43.197L47.686 44.2258ZM23.6936 30.7177C23.6936 27.8746 24.6089 25.0973 26.2666 22.8053L32.0059 28.5446C31.5196 29.3702 31.2581 30.3049 31.2581 31.2581C31.2581 34.2374 33.682 36.6613 36.6613 36.6613C37.6133 36.6613 38.5492 36.4009 39.3737 35.9146L45.113 41.6539C42.822 43.3105 40.0448 44.2258 37.2016 44.2258C29.7527 44.2258 23.6936 38.1666 23.6936 30.7177ZM19.371 46.3871H36.6613V46.3601C36.8418 46.3655 37.019 46.3871 37.2016 46.3871C39.2516 46.3871 41.2692 45.9678 43.1452 45.1995V50.7097H19.371V46.3871ZM15.0484 46.3871H17.2097V50.7097H15.0484V46.3871ZM19.371 64.7581C19.371 65.3546 18.8858 65.8387 18.2903 65.8387H16.129C15.5336 65.8387 15.0484 65.3546 15.0484 64.7581V61.5161H19.371V64.7581ZM51.7903 64.7581C51.7903 65.3546 51.3051 65.8387 50.7097 65.8387H48.5484C47.953 65.8387 47.4677 65.3546 47.4677 64.7581V61.5161H51.7903V64.7581ZM56.1129 46.3871V58.2742C56.1129 58.8707 55.6277 59.3548 55.0323 59.3548H11.8065C11.211 59.3548 10.7258 58.8707 10.7258 58.2742V52.871H45.3065V46.3871H49.8473H50.6935H56.1129Z" fill="black"/>
<path d="M58.2742 30.3741C58.2742 19.7784 50.2785 11.0284 40.007 9.8051L34.6091 3.16129C33.4928 1.78779 31.8373 1 30.0672 1H23.0614C19.8346 1 17.2097 3.62597 17.2097 6.85277C17.2097 8.2079 17.6841 9.52953 18.5443 10.5724L22.842 15.7908C22.4811 16.155 22.1277 16.5289 21.7916 16.9222L21.1421 17.6819L24.7223 21.2621C22.6691 23.9724 21.5323 27.304 21.5323 30.7177C21.5323 36.4743 24.6618 41.5015 29.2999 44.2258H6.40323V43.1452H4.24194V44.2258H1V46.3871H4.24194V47.4677H6.40323V46.3871H12.8871V50.7097H8.56452V58.2742C8.56452 60.0616 10.0191 61.5161 11.8065 61.5161H12.8871V64.7581C12.8871 66.5455 14.3416 68 16.129 68H18.2903C20.0777 68 21.5323 66.5455 21.5323 64.7581V61.5161H45.3065V64.7581C45.3065 66.5455 46.761 68 48.5484 68H50.7097C52.4971 68 53.9516 66.5455 53.9516 64.7581V61.5161H55.0323C56.8196 61.5161 58.2742 60.0616 58.2742 58.2742V44.2258H52.9401C56.3528 40.4381 58.2742 35.5234 58.2742 30.3741ZM20.2128 9.19886C19.6703 8.54074 19.371 7.70648 19.371 6.85277C19.371 4.81684 21.0265 3.16129 23.0625 3.16129H30.0683C31.1846 3.16129 32.2285 3.65839 32.932 4.52506L37.1022 9.65813C36.2247 9.6765 35.3548 9.74998 34.4957 9.8775L31.2527 5.8856C30.9609 5.52682 30.5286 5.32258 30.0672 5.32258H23.0625C22.2185 5.32258 21.5323 6.00879 21.5323 6.85277C21.5323 7.20074 21.6533 7.54331 21.8813 7.82536L26.1855 13.0514C25.5836 13.4469 25.0033 13.8748 24.4424 14.3341L20.2128 9.19886ZM32.115 10.3735C30.7145 10.755 29.3615 11.2834 28.0756 11.9469L24.3992 7.48387H29.7668L32.115 10.3735ZM24.102 17.5857C27.6066 13.9007 32.4511 11.8065 37.5453 11.8065C47.7833 11.8065 56.1129 20.1361 56.1129 30.3741C56.1129 35.4683 54.0186 40.3128 50.3336 43.8173L39.5412 33.0249L38.7804 33.6874C38.3557 34.058 37.6425 34.5 36.6613 34.5C34.8739 34.5 33.4194 33.0455 33.4194 31.2581C33.4194 30.2758 33.8613 29.5647 34.2309 29.1389L34.8944 28.3792L24.102 17.5857ZM47.686 44.2258H45.1227C45.6533 43.9146 46.1645 43.5699 46.6573 43.197L47.686 44.2258ZM23.6936 30.7177C23.6936 27.8746 24.6089 25.0973 26.2666 22.8053L32.0059 28.5446C31.5196 29.3702 31.2581 30.3049 31.2581 31.2581C31.2581 34.2374 33.682 36.6613 36.6613 36.6613C37.6133 36.6613 38.5492 36.4009 39.3737 35.9146L45.113 41.6539C42.822 43.3105 40.0448 44.2258 37.2016 44.2258C29.7527 44.2258 23.6936 38.1666 23.6936 30.7177ZM19.371 46.3871H36.6613V46.3601C36.8418 46.3655 37.019 46.3871 37.2016 46.3871C39.2516 46.3871 41.2692 45.9678 43.1452 45.1995V50.7097H19.371V46.3871ZM15.0484 46.3871H17.2097V50.7097H15.0484V46.3871ZM19.371 64.7581C19.371 65.3546 18.8858 65.8387 18.2903 65.8387H16.129C15.5336 65.8387 15.0484 65.3546 15.0484 64.7581V61.5161H19.371V64.7581ZM51.7903 64.7581C51.7903 65.3546 51.3051 65.8387 50.7097 65.8387H48.5484C47.953 65.8387 47.4677 65.3546 47.4677 64.7581V61.5161H51.7903V64.7581ZM56.1129 46.3871V58.2742C56.1129 58.8707 55.6277 59.3548 55.0323 59.3548H11.8065C11.211 59.3548 10.7258 58.8707 10.7258 58.2742V52.871H45.3065V46.3871H49.8473H50.6935H56.1129Z" stroke="black" mask="url(#path-1-outside-1)"/>
<path d="M28.5798 16.0638L28.3645 16.1908L28.4914 16.4061L29.5894 18.2681L29.7163 18.4834L29.9317 18.3565C32.1256 17.063 34.6396 16.3789 37.2017 16.3789C43.2419 16.3789 48.6687 20.1987 50.7046 25.8807L50.7889 26.116L51.0242 26.0318L53.0591 25.3034L53.2945 25.2191L53.2102 24.9837C50.7961 18.2448 44.3628 13.7177 37.2017 13.7177C34.165 13.7177 31.184 14.5281 28.5798 16.0638Z" fill="#ED204C" stroke="#ED204C" stroke-width="0.5"/>
<path d="M53.7881 26.9759L53.7334 26.7318L53.4894 26.7866L51.381 27.2599L51.1371 27.3147L51.1919 27.5586C51.3151 28.1078 51.4075 28.6707 51.4648 29.2334L51.4902 29.4824L51.7391 29.4567L53.8885 29.2352L54.137 29.2096L54.1116 28.961C54.0436 28.2961 53.9339 27.6272 53.7881 26.9759Z" fill="#ED204C" stroke="#ED204C" stroke-width="0.5"/>
<path d="M50.7097 48.2983C48.7843 48.2983 47.2178 49.8648 47.2178 51.7903C47.2178 53.7157 48.7843 55.2822 50.7097 55.2822C52.6352 55.2822 54.2016 53.7157 54.2016 51.7903C54.2016 49.8648 52.6352 48.2983 50.7097 48.2983ZM50.7097 52.6209C50.2522 52.6209 49.8791 52.2486 49.8791 51.7903C49.8791 51.332 50.2522 50.9596 50.7097 50.9596C51.1672 50.9596 51.5404 51.332 51.5404 51.7903C51.5404 52.2486 51.1672 52.6209 50.7097 52.6209Z" fill="#ED204C" stroke="#ED204C" stroke-width="0.5"/>
</svg>
