<svg width="93" height="93" viewBox="0 0 93 93" fill="none" xmlns="http://www.w3.org/2000/svg">
<path d="M19.0177 69.75C20.1814 69.75 21.1247 68.8066 21.1247 67.6429C21.1247 66.4792 20.1814 65.5359 19.0177 65.5359C17.854 65.5359 16.9106 66.4792 16.9106 67.6429C16.9106 68.8066 17.854 69.75 19.0177 69.75Z" fill="#ED204C"/>
<path d="M71.857 69.75C73.0207 69.75 73.9641 68.8066 73.9641 67.6429C73.9641 66.4792 73.0207 65.5359 71.857 65.5359C70.6934 65.5359 69.75 66.4792 69.75 67.6429C69.75 68.8066 70.6934 69.75 71.857 69.75Z" fill="#ED204C"/>
<path d="M52.8394 65.5178H31.5147C30.4976 59.5236 25.3026 54.9463 19.0179 54.9463C12.0247 54.9463 6.33936 60.6316 6.33936 67.6248C6.33936 74.618 12.0247 80.3033 19.0179 80.3033C25.2845 80.3033 30.4976 75.726 31.5147 69.7318H52.8394C54.0019 69.7318 54.9464 68.7873 54.9464 67.6248C54.9645 66.4623 54.02 65.5178 52.8394 65.5178ZM19.0179 76.0893C14.3497 76.0893 10.5716 72.293 10.5716 67.643C10.5716 62.993 14.3679 59.1967 19.0179 59.1967C23.6679 59.1967 27.4642 62.993 27.4642 67.643C27.4642 72.293 23.686 76.0893 19.0179 76.0893Z" fill="black"/>
<path d="M90.457 45.6644L84.2268 40.9781L78.1055 22.5779C77.8148 21.706 77.0156 21.1248 76.1074 21.1248H61.3037C60.3773 21.1248 59.56 21.7242 59.2875 22.6142L49.7695 53.0935C49.3336 54.4558 47.826 55.2551 46.4637 54.8191L9.22734 43.0851C8.53711 42.8672 7.99219 42.2859 7.81055 41.5775L4.26855 27.4095C4.23223 27.2824 4.21406 27.1371 4.21406 27.0099C4.21406 26.1017 4.95879 25.357 5.86699 25.357H45.9732C48.2256 25.357 50.3508 24.4851 51.9492 22.8867L56.69 18.1459C57.4893 17.3467 58.5609 16.9107 59.6871 16.9107H63.3926C64.5551 16.9107 65.4996 15.9662 65.4996 14.8037C65.4996 13.6412 64.5551 12.6967 63.3926 12.6967H59.6871C57.4348 12.6967 55.3096 13.5685 53.7111 15.167L48.9703 19.9078C48.1893 20.6888 47.0994 21.1429 45.9732 21.1429H5.88516C2.63379 21.1429 0 23.7767 0 27.0099C0 27.4822 0.0544922 27.9545 0.181641 28.4267L3.72363 42.5947C4.25039 44.7199 5.88516 46.4455 7.97402 47.0994L45.174 58.8515C45.8461 59.0695 46.5363 59.1785 47.2447 59.1785C50.26 59.1785 52.8938 57.2349 53.802 54.365L62.8477 25.357H74.5635L79.4859 40.1607H75.2719L75.8531 38.9982C76.3799 37.9629 75.9439 36.6914 74.9086 36.1646C73.8551 35.6379 72.6018 36.0738 72.075 37.1092L70.5492 40.1607H63.3926C62.2301 40.1607 61.2855 41.1052 61.2855 42.2677C61.2855 43.4302 62.2301 44.3748 63.3926 44.3748H81.7201L87.9141 49.0248C88.4408 49.4244 88.7496 50.0601 88.7496 50.714V63.3926C88.7496 64.5551 87.8051 65.4996 86.6426 65.4996H84.3357C83.3186 59.5054 78.1236 54.9281 71.8389 54.9281C64.8457 54.9281 59.1604 60.6135 59.1604 67.6066C59.1604 74.5998 64.8457 80.2851 71.8389 80.2851C78.1055 80.2851 83.3186 75.7078 84.3357 69.7136H86.6426C90.1301 69.7136 92.9818 66.8619 92.9818 63.3744V50.6959C93 48.7342 92.0555 46.8451 90.457 45.6644ZM71.857 76.0892C67.1889 76.0892 63.4107 72.2929 63.4107 67.6429C63.4107 62.9929 67.207 59.1967 71.857 59.1967C76.5252 59.1967 80.3033 62.9929 80.3033 67.6429C80.3215 72.2929 76.5252 76.0892 71.857 76.0892Z" fill="black"/>
<path d="M16.9107 29.5892C15.7482 29.5892 14.8037 30.5338 14.8037 31.6963V38.0355C14.8037 39.198 15.7482 40.1426 16.9107 40.1426C18.0732 40.1426 19.0178 39.198 19.0178 38.0355V31.6963C19.0178 30.5338 18.0732 29.5892 16.9107 29.5892Z" fill="#ED204C"/>
<path d="M25.357 29.5892C24.1945 29.5892 23.25 30.5338 23.25 31.6963V40.1426C23.25 41.3051 24.1945 42.2496 25.357 42.2496C26.5195 42.2496 27.4641 41.3051 27.4641 40.1426V31.6963C27.4822 30.5338 26.5377 29.5892 25.357 29.5892Z" fill="#ED204C"/>
<path d="M33.8214 29.5892C32.6589 29.5892 31.7144 30.5338 31.7144 31.6963V42.2677C31.7144 43.4302 32.6589 44.3748 33.8214 44.3748C34.9839 44.3748 35.9284 43.4302 35.9284 42.2677V31.6963C35.9284 30.5338 34.9839 29.5892 33.8214 29.5892Z" fill="#ED204C"/>
<path d="M42.2677 29.5892C41.1052 29.5892 40.1606 30.5338 40.1606 31.6963V44.3748C40.1606 45.5373 41.1052 46.4818 42.2677 46.4818C43.4302 46.4818 44.3747 45.5373 44.3747 44.3748V31.6963C44.3929 30.5338 43.4483 29.5892 42.2677 29.5892Z" fill="#ED204C"/>
</svg>
