<svg width="66" height="66" viewBox="0 0 66 66" fill="none" xmlns="http://www.w3.org/2000/svg">
<path d="M63.9334 0.75H63.9343C64.1067 0.750618 64.2776 0.784966 64.437 0.851459L63.9334 0.75ZM63.9334 0.75H54.3334C53.9842 0.75 53.6494 0.888707 53.4025 1.13572C53.4025 1.13574 53.4024 1.13576 53.4024 1.13578L37.5166 17.0215V13.2786L41.3969 9.39828L41.3976 9.39756M63.9334 0.75L41.3976 9.39756M41.3976 9.39756C41.643 9.15013 41.7814 8.81628 41.7834 8.46806V8.46663M41.3976 9.39756L41.7834 8.46663M41.7834 8.46663V2.06662V2.06572M41.7834 8.46663V2.06572M41.7834 2.06572C41.7808 1.34009 41.1931 0.752623 40.4677 0.75H40.4668M41.7834 2.06572L40.4668 0.75M40.4668 0.75H30.8668C30.5177 0.75 30.1827 0.888657 29.9358 1.13572C29.9358 1.13576 29.9358 1.1358 29.9357 1.13583L1.13647 29.935L1.13565 29.9358M40.4668 0.75L1.13565 29.9358M1.13565 29.9358C0.890532 30.1832 0.752005 30.5169 0.750004 30.8652H0.75M1.13565 29.9358L0.75 30.8652M0.75 30.8652V30.8666M0.75 30.8652V30.8666M0.75 30.8666V63.9333V30.8666ZM25.5334 38.5834H25.5548L9.78337 54.3548V38.5834L11.6667 38.5834L11.6681 38.5834C12.0166 38.5815 12.3505 38.4428 12.5979 38.1976L12.5987 38.1968L34.8835 15.9119V19.6548L24.6032 29.9351L24.6024 29.9359C24.3573 30.1834 24.2188 30.517 24.2167 30.8653V30.8668V37.2666C24.2167 37.2667 24.2167 37.2667 24.2167 37.2668C24.2166 37.6159 24.3554 37.9509 24.6022 38.1978C24.8491 38.4447 25.1841 38.5834 25.5334 38.5834ZM7.14987 57.5334L7.14988 57.5343C7.15265 58.2598 7.7401 58.8472 8.46554 58.85H8.4665H28.733C28.7331 58.85 28.7331 58.85 28.7331 58.85C29.0823 58.8501 29.4173 58.7114 29.6643 58.4644C29.9112 58.2175 30.0499 57.8825 30.0499 57.5332L30.0499 37.2666L30.0499 37.2657C30.0473 36.5401 29.4596 35.9526 28.7342 35.95H28.7332H26.85V32.1834H33.8166V62.6166H3.38337V32.1834H10.35V35.95H8.46674C8.4667 35.95 8.46666 35.95 8.46663 35.95C8.11741 35.9499 7.78245 36.0886 7.53547 36.3356C7.28856 36.5825 7.14988 36.9175 7.14988 37.2668L7.14987 57.5334ZM12.9834 31.4118L39.15 5.24518V7.92145L35.2697 11.8017L35.2681 11.8033L12.9834 34.0881V31.4118ZM11.6452 56.2166L27.4166 40.4452V56.2166H11.6452ZM31.4119 3.38337H37.2882L11.1214 29.55H5.24518L31.4119 3.38337ZM60.7548 3.38337L34.5881 29.55H28.7118L37.1302 21.1317L37.1318 21.13L54.8786 3.38337H60.7548ZM62.6166 5.24518V34.5881L36.45 60.7548V31.4119L62.6166 5.24518Z" fill="black" stroke="black" stroke-width="0.5"/>
<path d="M58.107 16C56.9445 16 56 16.9445 56 18.107V30.7856C56 31.948 56.9445 32.8926 58.107 32.8926C59.2695 32.8926 60.2141 31.948 60.2141 30.7856V18.107C60.2322 16.9445 59.2877 16 58.107 16Z" fill="#ED204C"/>
<path d="M41.107 33C39.9445 33 39 33.9445 39 35.107V47.7856C39 48.948 39.9445 49.8926 41.107 49.8926C42.2695 49.8926 43.2141 48.948 43.2141 47.7856V35.107C43.2322 33.9445 42.2877 33 41.107 33Z" fill="#ED204C"/>
</svg>
