<svg width="67" height="67" viewBox="0 0 67 67" fill="none" xmlns="http://www.w3.org/2000/svg">
<path d="M35.7566 42.0526H31.926C30.5331 42.0526 29.4048 40.9243 29.4048 39.5314C29.4048 38.1385 30.5331 37.0102 31.926 37.0102H38.6678C39.5871 37.0102 40.3393 36.258 40.3393 35.3387C40.3393 34.4193 39.5871 33.6671 38.6678 33.6671H35.5058V31.341C35.5058 30.4216 34.7537 29.6694 33.8343 29.6694C32.915 29.6694 32.1628 30.4216 32.1628 31.341V33.6671H31.926C28.6944 33.6671 26.0618 36.2998 26.0618 39.5314C26.0618 42.763 28.6944 45.3956 31.926 45.3956H35.7566C37.1495 45.3956 38.2778 46.5239 38.2778 47.9168C38.2778 49.3098 37.1495 50.438 35.7566 50.438H28.8894C27.9701 50.438 27.2179 51.1902 27.2179 52.1096C27.2179 53.0289 27.9701 53.7811 28.8894 53.7811H32.1767V56.163C32.1767 57.0823 32.9289 57.8345 33.8483 57.8345C34.7676 57.8345 35.5198 57.0823 35.5198 56.163V53.7811H35.7984C35.8123 53.7811 35.8262 53.7811 35.8401 53.7811C39.0439 53.7393 41.6208 51.1206 41.6208 47.9168C41.6208 44.6852 38.9882 42.0526 35.7566 42.0526Z" fill="#ED204C"/>
<path d="M58.9627 38.2638C57.2076 34.2243 54.7839 30.3102 51.7194 26.6468C48.0142 22.1894 44.323 19.2085 42.4425 17.8295L49.5465 4.65239C49.8947 3.99771 49.7833 3.18981 49.24 2.67443C47.4013 0.877547 45.4512 0 43.2783 0C41.2864 0 39.4616 0.752183 37.8737 1.42079C36.6201 1.93617 35.4361 2.43763 34.4749 2.43763C34.1824 2.43763 33.9317 2.39584 33.681 2.29834C30.3658 1.08649 27.8167 0.334304 25.3512 0.334304C22.2311 0.334304 19.5706 1.58794 16.9658 4.26237C16.4225 4.81954 16.339 5.69709 16.7708 6.35177L24.4319 17.927C22.5375 19.3339 18.9159 22.2869 15.2803 26.6468C12.2298 30.3102 9.79219 34.2243 8.0371 38.2638C5.83627 43.348 4.72192 48.6551 4.72192 54.0318C4.72192 61.1775 10.5444 67 17.6901 67H49.3097C56.4554 67 62.2778 61.1775 62.2778 54.0318C62.2778 48.6551 61.1635 43.348 58.9627 38.2638ZM20.3367 5.6553C21.9525 4.26237 23.4986 3.64948 25.3512 3.64948C27.3292 3.64948 29.5579 4.31809 32.5248 5.4185C33.1377 5.64137 33.7924 5.75281 34.461 5.75281C36.0907 5.75281 37.6508 5.11206 39.1413 4.48524C40.576 3.88628 41.9411 3.31518 43.2643 3.31518C43.9051 3.31518 44.8105 3.42661 45.9527 4.23451L39.2666 16.6595H27.6217L20.3367 5.6553ZM49.3097 63.657H17.6901C12.383 63.657 8.06496 59.3389 8.06496 54.0318C8.06496 45.1031 11.3383 36.6341 17.7737 28.8615C21.841 23.9445 25.9781 20.894 27.2317 20.0025H39.7402C41.0078 20.88 45.1309 23.9445 49.1982 28.8615C55.6475 36.6341 58.907 45.0892 58.907 54.0318C58.9348 59.3389 54.6167 63.657 49.3097 63.657Z" fill="black"/>
</svg>
