<svg width="26" height="26" viewBox="0 0 26 26" fill="none" xmlns="http://www.w3.org/2000/svg">
<path d="M5.6914 17.0815L5.69173 17.0819C8.0768 19.933 10.9488 22.1786 14.227 23.7676L14.2286 23.7684C15.4716 24.3574 17.1561 25.0677 19.0407 25.1896L19.0407 25.1897L19.0449 25.1899L19.0602 25.1905C19.1685 25.1952 19.2776 25.2 19.3918 25.2C20.6824 25.2 21.7303 24.7514 22.5797 23.8305C22.5836 23.8265 22.5902 23.8197 22.5971 23.8117C22.6021 23.8058 22.6098 23.7965 22.618 23.7842C22.8772 23.4729 23.1697 23.1892 23.4855 22.8828C23.5081 22.8609 23.5309 22.8388 23.5538 22.8166C23.7883 22.592 24.0292 22.3562 24.2606 22.1148C24.8199 21.5318 25.1107 20.8573 25.1094 20.1751C25.108 19.4924 24.814 18.8257 24.2476 18.2593L21.2602 15.2719C20.7215 14.7126 20.0653 14.4063 19.3669 14.4063C18.6682 14.4063 18.0078 14.7128 17.4551 15.2655L15.7815 16.9391C15.6563 16.8714 15.5316 16.809 15.4155 16.7509L15.4132 16.7498C15.2141 16.6502 15.0385 16.5599 14.8841 16.4616L14.884 16.4615C13.284 15.4456 11.8279 14.1185 10.4321 12.4073C9.76893 11.5678 9.31666 10.862 8.99564 10.1564C9.42792 9.75904 9.83449 9.34742 10.2252 8.94748L10.2259 8.94679C10.3738 8.79401 10.5268 8.64101 10.6811 8.48663C11.2472 7.92059 11.5652 7.25051 11.5652 6.55491C11.5652 5.86016 11.2529 5.18981 10.6808 4.62285C10.6807 4.62275 10.6806 4.62264 10.6805 4.62254L9.19915 3.14121C9.03085 2.97291 8.87181 2.80919 8.70729 2.63983L8.69399 2.62614C8.69397 2.62612 8.69395 2.6261 8.69393 2.62608C8.36607 2.28828 8.02056 1.93768 7.67893 1.62105C7.13497 1.08852 6.48537 0.8 5.79042 0.8C5.09925 0.8 4.44493 1.08945 3.88201 1.62606L3.88197 1.62602L3.87859 1.6294L2.01867 3.48933C1.30918 4.19881 0.905501 5.06344 0.821951 6.0608L0.821883 6.06165C0.724419 7.28765 0.95139 8.58072 1.52492 10.1253C2.40453 12.5127 3.73036 14.7253 5.6914 17.0815ZM6.54293 2.79124L6.54277 2.7914L6.54974 2.79785C6.83489 3.06172 7.10521 3.33658 7.39362 3.62983C7.43771 3.67467 7.48223 3.71993 7.52729 3.76565C7.61226 3.85312 7.69839 3.9405 7.78455 4.02789L7.78623 4.0296C7.87217 4.11677 7.95814 4.20398 8.04404 4.29234L8.04403 4.29235L8.04602 4.29434L9.52799 5.77632C9.81529 6.06361 9.93688 6.32904 9.93688 6.56486C9.93688 6.80068 9.81529 7.0661 9.52799 7.3534C9.45033 7.43106 9.37276 7.50988 9.29585 7.58803L9.29562 7.58827C9.21844 7.66669 9.14192 7.74444 9.0655 7.82086L9.06474 7.82162C9.03007 7.85667 8.9956 7.89154 8.9613 7.92624C8.53653 8.35593 8.13794 8.75914 7.70177 9.14533L7.70153 9.14505L7.69293 9.15365L7.69287 9.15371L7.69282 9.15376L7.69276 9.15382L7.6927 9.15388L7.69264 9.15394L7.69259 9.15399L7.69253 9.15405L7.69247 9.15411L7.69241 9.15417L7.69236 9.15422L7.6923 9.15428L7.69224 9.15434L7.69218 9.1544L7.69213 9.15445L7.69207 9.15451L7.69201 9.15457L7.69196 9.15462L7.6919 9.15468L7.69185 9.15473L7.69179 9.15479L7.69173 9.15485L7.69168 9.1549L7.69162 9.15496L7.69157 9.15501L7.69151 9.15507L7.69145 9.15513L7.6914 9.15518L7.69134 9.15524L7.69129 9.15529L7.69123 9.15535L7.69118 9.1554L7.69112 9.15546L7.69107 9.15551L7.69101 9.15557L7.69096 9.15562L7.69091 9.15567L7.69085 9.15573L7.6908 9.15578L7.69074 9.15584L7.69069 9.15589L7.69063 9.15595L7.69058 9.156L7.69053 9.15605L7.69047 9.15611L7.69042 9.15616L7.69037 9.15621L7.69031 9.15627L7.69026 9.15632L7.69021 9.15637L7.69015 9.15643L7.6901 9.15648L7.69005 9.15653L7.68999 9.15659L7.68994 9.15664L7.68989 9.15669L7.68984 9.15674L7.68978 9.1568L7.68973 9.15685L7.68968 9.1569L7.68963 9.15695L7.68957 9.15701L7.68952 9.15706L7.68947 9.15711L7.68942 9.15716L7.68936 9.15722L7.68931 9.15727L7.68926 9.15732L7.68921 9.15737L7.68916 9.15742L7.68911 9.15747L7.68906 9.15753L7.689 9.15758L7.68895 9.15763L7.6889 9.15768L7.68885 9.15773L7.6888 9.15778L7.68875 9.15783L7.6887 9.15788L7.68865 9.15793L7.6886 9.15798L7.68855 9.15803L7.6885 9.15808L7.68845 9.15813L7.6884 9.15819L7.68834 9.15824L7.68829 9.15829L7.68824 9.15834L7.68819 9.15839L7.68815 9.15844L7.6881 9.15849L7.68805 9.15854L7.688 9.15858L7.68795 9.15863L7.6879 9.15868L7.68785 9.15873L7.6878 9.15878L7.68775 9.15883L7.6877 9.15888L7.68765 9.15893L7.6876 9.15898L7.68755 9.15903L7.6875 9.15908L7.68745 9.15913L7.6874 9.15918L7.68736 9.15922L7.68731 9.15927L7.68726 9.15932L7.68721 9.15937L7.68716 9.15942L7.68711 9.15947L7.68706 9.15952L7.68702 9.15956L7.68697 9.15961L7.68692 9.15966L7.68687 9.15971L7.68682 9.15976L7.68678 9.15981L7.68673 9.15985L7.68668 9.1599L7.68663 9.15995L7.68658 9.16L7.68654 9.16004L7.68649 9.16009L7.68644 9.16014L7.68639 9.16019L7.68635 9.16024L7.6863 9.16028L7.68625 9.16033L7.6862 9.16038L7.68616 9.16042L7.68611 9.16047L7.68606 9.16052L7.68601 9.16057L7.68597 9.16061L7.68592 9.16066L7.68587 9.16071L7.68583 9.16075L7.68578 9.1608L7.68573 9.16085L7.68569 9.16089L7.68564 9.16094L7.68559 9.16099L7.68555 9.16103L7.6855 9.16108L7.68545 9.16113L7.68541 9.16117L7.68536 9.16122L7.68531 9.16127L7.68527 9.16131L7.68522 9.16136L7.68518 9.1614L7.68513 9.16145L7.68508 9.1615L7.68504 9.16154L7.68499 9.16159L7.68495 9.16164L7.6849 9.16168L7.68485 9.16173L7.68481 9.16177L7.68476 9.16182L7.68472 9.16186L7.68467 9.16191L7.68463 9.16196L7.68458 9.162L7.68453 9.16205L7.68449 9.16209L7.68444 9.16214L7.6844 9.16218L7.68435 9.16223L7.68431 9.16227L7.68426 9.16232L7.68422 9.16236L7.68417 9.16241L7.68413 9.16245L7.68408 9.1625L7.68404 9.16255L7.68399 9.16259L7.68394 9.16264L7.6839 9.16268L7.68386 9.16273L7.68381 9.16277L7.68376 9.16282L7.68372 9.16286L7.68368 9.16291L7.68363 9.16295L7.68359 9.163L7.68354 9.16304L7.6835 9.16308L7.68345 9.16313L7.68341 9.16317L7.68336 9.16322L7.68332 9.16326L7.68327 9.16331L7.68323 9.16335L7.68318 9.1634L7.68314 9.16344L7.68309 9.16349L7.68305 9.16353L7.68301 9.16358L7.68296 9.16362L7.68292 9.16366L7.68287 9.16371L7.68283 9.16375L7.68278 9.1638L7.68274 9.16384L7.6827 9.16389L7.68265 9.16393L7.68261 9.16397L7.68256 9.16402L7.68252 9.16406L7.68247 9.16411L7.68243 9.16415L7.68239 9.1642L7.68234 9.16424L7.6823 9.16428L7.68225 9.16433L7.68221 9.16437L7.68217 9.16442L7.68212 9.16446L7.68208 9.1645L7.68203 9.16455L7.68199 9.16459L7.68195 9.16463L7.6819 9.16468L7.68186 9.16472L7.68181 9.16477L7.68177 9.16481L7.68173 9.16485L7.68168 9.1649L7.68164 9.16494L7.68159 9.16499L7.68155 9.16503L7.68151 9.16507L7.68146 9.16512L7.68142 9.16516L7.68138 9.16521L7.68133 9.16525L7.68129 9.16529L7.68124 9.16534L7.6812 9.16538L7.68116 9.16542L7.68111 9.16547L7.68107 9.16551L7.68103 9.16556L7.68098 9.1656L7.68094 9.16564L7.68089 9.16569L7.68085 9.16573L7.68081 9.16577L7.68076 9.16582L7.68072 9.16586L7.68068 9.1659L7.68063 9.16595L7.68059 9.16599L7.68054 9.16604L7.6805 9.16608L7.68046 9.16612L7.68041 9.16617L7.68037 9.16621L7.68033 9.16625L7.68028 9.1663L7.68024 9.16634L7.68019 9.16639L7.68015 9.16643L7.68011 9.16647L7.68006 9.16652L7.68002 9.16656L7.67998 9.1666L7.67993 9.16665L7.67989 9.16669L7.67984 9.16674L7.6798 9.16678L7.67976 9.16682L7.67971 9.16687L7.67967 9.16691L7.67963 9.16695L7.67958 9.167L7.67954 9.16704L7.67949 9.16709L7.67945 9.16713L7.67941 9.16717L7.67936 9.16722L7.67932 9.16726L7.67928 9.1673L7.67923 9.16735L7.67919 9.16739L7.67914 9.16744L7.6791 9.16748L7.67906 9.16753L7.67901 9.16757L7.67897 9.16761L7.67892 9.16766L7.67888 9.1677L7.67884 9.16774L7.67879 9.16779L7.67875 9.16783L7.6787 9.16788L7.67866 9.16792L7.67862 9.16796L7.67857 9.16801L7.67853 9.16805L7.67848 9.1681L7.67844 9.16814L7.67839 9.16819L7.67835 9.16823L7.67831 9.16827L7.67826 9.16832L7.67822 9.16836L7.67817 9.16841L7.67813 9.16845L7.67808 9.1685L7.67804 9.16854L7.678 9.16858L7.67795 9.16863L7.67791 9.16867L7.67786 9.16872L7.67782 9.16876L7.67777 9.16881L7.67773 9.16885L7.67768 9.1689L7.67764 9.16894L7.67759 9.16899L7.67755 9.16903L7.67751 9.16908L7.67746 9.16912L7.67742 9.16916L7.67737 9.16921L7.67733 9.16925L7.67728 9.1693L7.67724 9.16934L7.67719 9.16939L7.67715 9.16943L7.6771 9.16948L7.67706 9.16952L7.67701 9.16957L7.67697 9.16961L7.67692 9.16966L7.67688 9.16971L7.67683 9.16975L7.67678 9.1698L7.67674 9.16984L7.67669 9.16989L7.67665 9.16993L7.6766 9.16998L7.67656 9.17002L7.67651 9.17007L7.67647 9.17011L7.67642 9.17016L7.67638 9.1702L7.67633 9.17025L7.67628 9.1703L7.67624 9.17034L7.67619 9.17039L7.67615 9.17043L7.6761 9.17048L7.67606 9.17052L7.67601 9.17057L7.67596 9.17062L7.67592 9.17066L7.67587 9.17071L7.67583 9.17076L7.67578 9.1708L7.67573 9.17085L7.67569 9.17089L7.67564 9.17094L7.67559 9.17099L7.67555 9.17103L7.6755 9.17108L7.67545 9.17113L7.67541 9.17117L7.67536 9.17122L7.67531 9.17127L7.67527 9.17131L7.67522 9.17136L7.67517 9.17141L7.67513 9.17145L7.67508 9.1715L7.67503 9.17155L7.67499 9.17159L7.67494 9.17164L7.67489 9.17169L7.67484 9.17174L7.6748 9.17178L7.67475 9.17183L7.6747 9.17188L7.67466 9.17192L7.67461 9.17197L7.67456 9.17202L7.67451 9.17207L7.67447 9.17212L7.67442 9.17216L7.67437 9.17221L7.67432 9.17226L7.67427 9.17231L7.67423 9.17235L7.67418 9.1724L7.67413 9.17245L7.67408 9.1725L7.67403 9.17255L7.67399 9.1726L7.67394 9.17264L7.67389 9.17269L7.67384 9.17274L7.67379 9.17279L7.67374 9.17284L7.67369 9.17289L7.67365 9.17294L7.6736 9.17298L7.67355 9.17303L7.6735 9.17308L7.67345 9.17313L7.6734 9.17318L7.67335 9.17323L7.6733 9.17328L7.67325 9.17333L7.6732 9.17338L7.67315 9.17343L7.6731 9.17348L7.67306 9.17353L7.67301 9.17358L7.67296 9.17362L7.67291 9.17367L7.67286 9.17372L7.67281 9.17377L7.67276 9.17382L7.67271 9.17387L7.67266 9.17392L7.67261 9.17397L7.67255 9.17403L7.6725 9.17408L7.67245 9.17413L7.6724 9.17418L7.67235 9.17423L7.6723 9.17428L7.67225 9.17433L7.6722 9.17438L7.67215 9.17443L7.6721 9.17448L7.67205 9.17453L7.672 9.17458L7.67195 9.17463L7.67189 9.17469L7.67184 9.17474L7.67179 9.17479L7.67174 9.17484L7.67169 9.17489L7.67164 9.17494L7.67158 9.175L7.67153 9.17505L7.67148 9.1751L7.67143 9.17515L7.67138 9.17521L7.67132 9.17526L7.67127 9.17531L7.67122 9.17536L7.67117 9.17541L7.67111 9.17547L7.67106 9.17552L7.67101 9.17557L7.67095 9.17563L7.6709 9.17568L7.67085 9.17573L7.6708 9.17579L7.67074 9.17584L7.67069 9.17589L7.67064 9.17595L7.67058 9.176L7.67053 9.17605L7.67047 9.17611L7.67042 9.17616L7.67037 9.17621L7.67031 9.17627L7.67026 9.17632L7.6702 9.17638L7.67015 9.17643L7.6701 9.17649L7.67004 9.17654L7.66999 9.17659L7.66993 9.17665L7.66988 9.1767L7.66982 9.17676L7.66977 9.17681L7.66971 9.17687L7.66966 9.17692L7.6696 9.17698L7.66955 9.17703L7.66949 9.17709L7.66943 9.17715L7.66938 9.1772L7.66932 9.17726L7.66927 9.17731L7.66921 9.17737L7.66916 9.17743L7.6691 9.17748L7.66904 9.17754L7.66899 9.17759L7.66893 9.17765L7.66887 9.17771L7.66882 9.17776L7.66876 9.17782L7.6687 9.17788L7.66864 9.17794L7.66859 9.17799L7.66853 9.17805L7.66847 9.17811L7.66842 9.17816L7.66836 9.17822L7.6683 9.17828L7.66824 9.17834L7.66818 9.1784L7.66813 9.17845L7.66807 9.17851C7.43321 9.41337 7.32352 9.65491 7.29457 9.89044C7.26625 10.1209 7.31768 10.3269 7.3711 10.4872C7.37547 10.5003 7.37982 10.5112 7.38228 10.5173L7.3826 10.5181L7.38602 10.527L7.38832 10.5339L7.39111 10.5406C7.7828 11.4817 8.32573 12.3728 9.16476 13.4278L9.16476 13.4278L9.16595 13.4293C10.6693 15.2835 12.2563 16.7259 14.0071 17.8379C14.1948 17.96 14.3943 18.0608 14.5754 18.1524C14.6113 18.1705 14.6465 18.1883 14.6807 18.2058L14.6823 18.2066C14.8815 18.3062 15.057 18.3966 15.2114 18.4949L15.2201 18.5004L15.2294 18.505C15.2337 18.5072 15.2378 18.5095 15.2469 18.5147L15.248 18.5153C15.2561 18.5199 15.2685 18.527 15.283 18.5343C15.4719 18.6315 15.6619 18.6803 15.8559 18.6803C16.3406 18.6803 16.6501 18.3718 16.7383 18.2836L18.5982 16.4236C18.8626 16.1593 19.1279 16.0396 19.3669 16.0396C19.6622 16.0396 19.9209 16.2249 20.1006 16.4183L20.1005 16.4184L20.1058 16.4238L23.1045 19.4174C23.3776 19.6906 23.4917 19.9528 23.4897 20.1988C23.4878 20.4464 23.368 20.7195 23.0867 21.0123L23.0848 21.0144C22.8798 21.2339 22.6643 21.4446 22.4312 21.6678L22.4302 21.6688C22.4107 21.6878 22.3911 21.7068 22.3714 21.7259C22.0435 22.0441 21.6964 22.381 21.3801 22.7591C20.8488 23.3302 20.2226 23.5965 19.3967 23.5965C19.319 23.5965 19.2351 23.5919 19.1502 23.5869C17.5597 23.4849 16.0724 22.8632 14.9381 22.3233C11.871 20.839 9.17841 18.7335 6.94361 16.0596C5.10017 13.8406 3.86496 11.7812 3.04883 9.57866L3.04858 9.578C2.54283 8.22769 2.3577 7.15942 2.43397 6.19886C2.48965 5.58401 2.72316 5.07618 3.16682 4.63251L5.01552 2.78381C5.27657 2.53223 5.54701 2.4184 5.79042 2.4184C6.02656 2.4184 6.28635 2.53016 6.54293 2.79124Z" fill="#ED204C" stroke="#ED204C" stroke-width="0.4"/>
</svg>
